<svg width="48" height="118" viewBox="0 0 48 118" fill="none" xmlns="http://www.w3.org/2000/svg">
<path d="M1.17027 73.7045C1.68122 71.2263 2.35453 68.7907 3.20451 66.4122C7.02945 55.6779 9.88025 44.6966 11.7617 33.4638C11.8524 32.9178 12.0386 32.3908 12.1198 31.8449C12.3538 30.3256 13.3184 29.6705 14.7653 29.661C18.7383 29.6372 22.716 29.6515 26.689 29.6515C27.1665 29.6515 27.6249 29.7084 28.0738 29.9268C30.9389 31.3226 32.9158 35.4388 32.042 38.4963C30.6572 43.3246 30.0603 48.2241 30.3372 53.2423C30.5617 57.33 31.8892 60.8812 34.8068 63.9055C39.9449 69.237 43.8129 75.3424 45.36 82.6822C45.8471 84.9991 46.0954 87.3539 46.1623 89.7324C46.253 93.0178 46.4153 96.2984 46.5634 99.8116V113.575C46.5634 113.575 46.2148 117.444 41.9649 117.354C37.7149 117.264 5.41066 117.354 5.41066 117.354C5.41066 117.354 0.70708 117.625 0.344164 113.755C-0.0187515 109.886 -0.467621 81.6378 1.17027 73.7045Z" fill="#B9DF01"/>
<path d="M15.0656 5.69031C12.1957 7.24278 9.83678 9.64032 8.5045 12.6076C8.24187 13.1868 8.02221 13.785 7.84075 14.4117C7.20565 16.5813 7.76435 17.3362 10.0564 17.3457C16.0923 17.3742 22.1234 17.3409 28.1592 17.3694C29.3244 17.3742 30.3224 17.0846 31.2631 16.4057C33.3212 14.9292 35.2313 13.163 37.1653 11.5346C41.2576 8.07836 46.5868 8.76676 46.5868 8.76676V0.800278C46.5868 0.800278 28.9758 -1.8204 15.0656 5.69031Z" fill="#B9DF01"/>
<path d="M26.9326 27.8189H14.1732C13.9536 25.3549 14.03 22.9289 14.1111 20.5171C14.1446 19.4584 14.9468 19.0358 15.9162 19.0264C18.9341 19.0026 21.952 19.0074 24.9652 19.0264C26.2115 19.0311 26.8944 19.7242 26.9182 20.9349C26.9612 23.1283 26.9326 25.3217 26.9326 27.8237V27.8189Z" fill="#B9DF01"/>
<path d="M46.7924 28.9631C45.9329 29.134 45.57 28.4076 45.102 27.9376C42.8911 25.7157 41.3582 23.0856 40.3411 20.1325C39.5007 17.6875 39.1282 17.4501 36.5878 17.3884C35.5564 17.3647 34.5297 17.3504 33.4983 17.3077C33.3837 17.3077 33.2786 17.1463 32.9443 16.8804C36.0769 14.6965 39.1426 12.5601 42.2178 10.4189C43.5978 11.5631 44.1661 12.8924 44.1899 14.3025C44.2616 19.0738 44.7916 23.7312 46.9787 28.0705C47.1171 28.3459 47.0455 28.6877 46.7877 28.9726L46.7924 28.9631Z" fill="white"/>
</svg>
