<svg width="46" height="47" viewBox="0 0 46 47" fill="none" xmlns="http://www.w3.org/2000/svg">
<path d="M27.5658 9.7709L27.5636 9.77023C25.1267 9.03442 22.5343 8.98404 20.0706 9.62461C17.6076 10.265 15.3685 11.5713 13.5989 13.4002C12.2204 14.8029 11.1412 16.4677 10.4234 18.2936L3.84313 13.1989C6.4771 8.20638 10.9077 4.39148 16.2478 2.53127C21.1084 0.862901 26.3935 0.908638 31.2245 2.66085C33.717 3.59425 36.0131 4.98194 37.9968 6.75203C37.6655 7.0947 37.3305 7.42696 36.9916 7.76315C36.7123 8.04019 36.4303 8.31991 36.1454 8.61034C34.8652 9.88835 33.586 11.1623 32.3078 12.4323C30.9369 11.2177 29.3203 10.3095 27.5658 9.7709Z" fill="#E33629" stroke="#D9D9D9"/>
<path d="M1.72192 19.1506C2.07334 17.4091 2.63294 15.7169 3.38817 14.1104L10.0739 19.2997C9.21175 22.0644 9.21166 25.0265 10.0736 27.7913C7.84618 29.5119 5.61776 31.2403 3.38837 32.9763C1.37072 28.6696 0.78336 23.8239 1.72192 19.1506Z" fill="#F8BD00" stroke="#D9D9D9"/>
<path d="M35.2704 37.5903C34.2412 36.7921 33.2126 35.9944 32.1857 35.1945C33.1964 34.419 34.0685 33.4754 34.763 32.4035C35.5814 31.1404 36.1363 29.725 36.3945 28.2423L36.4965 27.6565H35.9019H24.0138C24.012 25.8539 24.0128 24.0503 24.0135 22.2458C24.0138 21.4264 24.0142 20.6068 24.0143 19.7871H44.4838C45.1158 23.5964 44.8983 27.5002 43.8446 31.2186C42.8849 34.604 41.0558 37.6764 38.5424 40.1321C37.453 39.283 36.3617 38.4366 35.271 37.5907L35.2704 37.5903Z" fill="#587DBD" stroke="#D9D9D9"/>
<path d="M34.67 38.362C35.7162 39.1733 36.7618 39.9843 37.8056 40.7975C35.3258 42.9213 32.3619 44.4089 29.1706 45.1266L29.1706 45.1265L29.1659 45.1276C25.416 46.0092 21.5081 45.9671 17.778 45.005C14.8327 44.2183 12.0815 42.8318 9.69688 40.9323L9.69625 40.9318C7.27904 39.0127 5.28584 36.6156 3.84036 33.892C6.03489 32.1982 8.22848 30.4969 10.4211 28.7882C11.4641 31.4296 13.256 33.7154 15.5835 35.36C17.1568 36.472 18.9445 37.244 20.8327 37.6268L20.8327 37.6268L20.8407 37.6283C22.6932 37.9728 24.5934 37.973 26.446 37.629C28.1828 37.3345 29.844 36.7034 31.3367 35.7724C32.4464 36.6375 33.5582 37.4997 34.6693 38.3614L34.67 38.362Z" fill="#319F43" stroke="#D9D9D9"/>
</svg>
