<?xml version="1.0" standalone="no"?>
<!DOCTYPE svg PUBLIC "-//W3C//DTD SVG 20010904//EN"
 "http://www.w3.org/TR/2001/REC-SVG-20010904/DTD/svg10.dtd">
<svg version="1.0" xmlns="http://www.w3.org/2000/svg"
 width="228.000000pt" height="228.000000pt" viewBox="0 0 228.000000 228.000000"
 preserveAspectRatio="xMidYMid meet">
<metadata>
Created by potrace 1.14, written by Peter Selinger 2001-2017
</metadata>
<g transform="translate(0.000000,228.000000) scale(0.100000,-0.100000)"
fill="#000000" stroke="none">
<path d="M420 1553 c-281 -72 -386 -409 -194 -621 136 -151 345 -179 517 -70
26 17 47 35 48 42 1 13 1 221 0 254 -1 12 -4 21 -8 21 -18 -3 -33 2 -33 10 0
5 -16 35 -35 67 -38 64 -90 109 -136 119 -19 4 -29 13 -29 25 0 15 10 19 50
22 27 1 59 0 72 -3 13 -3 29 -1 36 4 7 5 15 7 19 4 6 -7 63 30 63 41 0 14 -88
61 -150 80 -76 24 -143 25 -220 5z"/>
<path d="M870 1293 c-12 -3 -15 -20 -13 -86 1 -45 2 -94 3 -109 0 -23 5 -28
25 -28 l25 0 0 109 c0 111 -4 122 -40 114z"/>
<path d="M1040 1293 c-61 -18 -90 -56 -90 -119 0 -53 53 -104 109 -104 44 0
90 17 92 34 6 60 4 75 -13 79 -22 6 -28 -1 -28 -34 0 -61 -101 -39 -108 24 -7
59 40 94 94 72 31 -13 54 -5 54 17 0 19 -76 41 -110 31z"/>
<path d="M1250 1284 c-41 -18 -72 -83 -59 -128 5 -17 23 -43 41 -58 73 -63
190 -10 190 85 0 85 -87 136 -172 101z m102 -51 c39 -35 8 -123 -43 -123 -29
0 -69 39 -69 69 0 62 67 95 112 54z"/>
<path d="M1502 1283 c-32 -15 -62 -65 -62 -103 0 -29 26 -76 52 -94 28 -20 81
-20 118 -1 33 17 36 25 19 42 -9 9 -18 9 -38 -1 -34 -17 -62 -12 -84 16 -20
23 -17 68 4 95 14 16 71 17 87 1 8 -8 15 -8 27 2 20 17 19 27 -4 39 -33 18
-87 20 -119 4z"/>
<path d="M1643 1048 c-8 -14 7 -27 25 -23 16 3 18 -4 17 -56 -1 -52 1 -59 18
-59 16 0 18 6 14 45 -4 45 4 69 23 71 5 1 14 2 20 3 5 0 7 7 5 14 -6 13 -113
18 -122 5z"/>
<path d="M1793 1053 c-9 -3 -13 -28 -13 -74 0 -60 2 -69 18 -69 17 0 19 8 18
69 -1 73 -3 81 -23 74z"/>
<path d="M1850 984 c0 -59 3 -74 15 -74 11 0 15 12 15 47 l0 47 33 -47 c17
-26 40 -47 50 -47 14 0 17 10 17 69 0 67 -10 95 -26 69 -4 -7 -7 -28 -6 -48
l2 -35 -30 35 c-16 19 -30 38 -30 41 0 4 -9 9 -20 12 -19 5 -20 0 -20 -69z"/>
<path d="M2054 1050 c-75 -30 -57 -140 22 -140 52 0 64 9 64 46 0 26 -3 32
-15 28 -8 -4 -15 -15 -15 -25 0 -24 -55 -27 -64 -3 -19 48 11 82 57 65 19 -7
27 -6 31 4 3 8 -6 17 -26 24 -17 6 -31 11 -32 10 -1 0 -11 -4 -22 -9z"/>
<path d="M857 988 c1 -35 2 -66 2 -70 1 -5 8 -8 15 -8 11 0 14 10 12 35 -5 47
7 52 27 10 9 -19 20 -35 25 -35 4 0 18 19 29 43 l22 42 0 -47 c1 -35 5 -48 16
-48 11 0 14 15 14 70 -1 62 -3 70 -20 70 -12 0 -26 -15 -40 -42 l-22 -43 -20
43 c-15 29 -27 42 -41 42 -19 0 -21 -6 -19 -62z"/>
<path d="M1069 985 c-16 -35 -29 -67 -29 -70 0 -12 31 -4 36 10 4 9 19 15 40
15 24 0 34 -5 34 -15 0 -8 9 -15 20 -15 25 0 25 -2 -5 64 -14 30 -25 60 -25
65 0 6 -9 11 -21 11 -15 0 -27 -16 -50 -65z m60 -12 c1 -7 -6 -13 -14 -13 -16
0 -19 17 -8 46 6 16 7 16 14 -2 4 -10 8 -25 8 -31z"/>
<path d="M1210 980 c0 -63 2 -71 18 -68 10 2 16 11 14 21 -4 25 38 23 45 -3 3
-11 14 -20 24 -20 21 0 24 11 9 26 -6 6 -6 21 2 42 19 48 3 66 -61 70 l-51 3
0 -71z m88 36 c12 -12 -10 -36 -33 -36 -18 0 -25 5 -25 18 0 10 3 21 6 25 6 6
43 1 52 -7z"/>
<path d="M1360 980 c0 -65 2 -70 21 -70 14 0 19 5 16 14 -3 8 0 21 6 30 11 15
14 13 30 -14 11 -17 26 -30 38 -30 21 0 20 4 -14 53 -20 29 -16 43 23 74 13
11 12 12 -5 13 -10 0 -34 -15 -53 -32 l-33 -33 6 33 c4 27 2 32 -15 32 -18 0
-20 -7 -20 -70z"/>
<path d="M1514 980 l1 -70 58 0 c43 0 58 3 54 13 -2 6 -15 13 -28 14 -13 0
-30 1 -36 2 -7 1 -13 8 -13 16 0 10 11 15 35 15 32 0 52 18 23 21 -7 1 -17 2
-23 4 -5 1 -16 3 -22 3 -7 1 -13 9 -13 18 0 12 8 15 34 11 24 -3 36 0 40 9 4
11 -7 14 -52 14 l-58 0 0 -70z"/>
</g>
</svg>
