<svg width="127" height="113" viewBox="0 0 127 113" fill="none" xmlns="http://www.w3.org/2000/svg">
<path d="M78.9457 109.678C78.9232 110.369 79.1818 111.038 79.6652 111.533C80.1487 112.022 80.812 112.298 81.5034 112.292L118.994 112.151V112.146C120.377 112.157 121.512 111.044 121.529 109.655V104.411H79.0306C79.07 106.389 79.03 108.166 78.9457 109.678Z" fill="white"/>
<path d="M121.136 17.3947C119.691 17.3834 118.303 17.94 117.274 18.9518C116.245 19.9636 115.661 21.341 115.644 22.7857V47.7961C115.604 48.7574 114.812 49.5163 113.845 49.5163C112.884 49.5163 112.091 48.7573 112.052 47.7961V16.1687C112.001 13.6783 109.972 11.6771 107.476 11.6771C104.98 11.6771 102.945 13.6783 102.9 16.1687V40.3861C102.872 41.353 102.073 42.1287 101.101 42.1287C100.128 42.1287 99.3356 41.3529 99.302 40.3861V6.06613C99.212 3.08673 96.7723 0.714355 93.7929 0.714355C90.8135 0.714355 88.3738 3.08659 88.2838 6.06613V41.7129C88.2445 42.6742 87.4518 43.4331 86.4849 43.4331C85.518 43.4331 84.7253 42.6742 84.686 41.7129V16.989C84.6073 14.1895 82.3194 11.9633 79.5199 11.9633C76.7204 11.9633 74.4324 14.1895 74.3538 16.989V51.0384C74.3369 51.7355 73.9209 52.3595 73.2857 52.6462C72.6561 52.9329 71.914 52.8317 71.38 52.3876L63.8303 46.0802C58.0119 41.3919 50.3949 49.0147 55.308 54.653L70.4863 71.3712V71.3768C75.7031 80.3544 78.6038 90.4954 78.9299 100.879H121.53C121.227 97.6913 121.592 94.4757 122.61 91.4457C123.627 88.5899 126.826 82.6479 126.624 79.6067V22.7848C126.612 21.34 126.028 19.9628 124.999 18.9508C123.97 17.9389 122.581 17.3835 121.136 17.3947Z" fill="#B9DF01"/>
<path d="M67.6801 73.6051L52.6255 57.005C44.806 48.1004 56.9092 35.9018 66.1621 43.3897L70.7549 47.2292V43.5078L49.1121 9.02523C45.1601 3.08889 36.1094 8.53617 39.7747 14.6805L53.1428 35.9751C53.615 36.8239 53.3283 37.8864 52.5019 38.3867C51.6699 38.8871 50.5962 38.6453 50.0678 37.8358C50.0678 37.8358 33.1913 10.9201 33.187 10.9086L33.1814 10.903C32.3887 9.72245 31.107 8.96347 29.6904 8.83424C28.2737 8.70501 26.874 9.2165 25.879 10.234C24.5074 11.7068 24.2993 13.9161 25.3675 15.6195L38.3195 36.2391C38.7973 37.0823 38.5219 38.1503 37.6955 38.6563C36.8691 39.1623 35.7898 38.9149 35.2614 38.0998C35.2614 38.0998 16.9242 8.91892 16.9012 8.88438C12.8817 3.06043 3.84239 8.29974 7.54695 14.5565L26.5922 44.8959C27.0756 45.7447 26.7889 46.8184 25.9513 47.3188C25.1137 47.8191 24.0344 47.5605 23.5172 46.7341C23.5172 46.7341 10.329 25.7605 10.2954 25.7044C6.95618 20.3976 -1.99898 25.62 1.52008 31.0111L19.7335 60.0236H19.7279C20.082 60.6195 20.0539 61.3615 19.6716 61.9349C19.2838 62.5027 18.6036 62.8006 17.9234 62.6994L8.10824 61.2322C4.98263 60.7207 1.99762 62.7332 1.2949 65.8194C0.592211 68.9056 2.40797 72.0088 5.44357 72.9082L27.3166 79.3167C36.5191 84.2973 44.3831 91.4199 50.2532 100.083L72.9984 86.3048V86.2991C71.7954 81.8526 70.0018 77.5795 67.6801 73.6051Z" fill="#B9DF01"/>
<path d="M52.2266 103C53.9974 105.007 54.9586 110.269 58.5451 108.453L75.1395 98.3459C74.8809 95.5126 74.4593 92.6962 73.8747 89.9136L52.2266 103Z" fill="white"/>
</svg>
