<svg width="174" height="110" viewBox="0 0 174 110" fill="none" xmlns="http://www.w3.org/2000/svg">
<path d="M39.1562 101.614C35.9229 102.969 32.4602 103.917 28.957 104.541C25.4133 105.178 23.2061 103.511 22.2408 99.9812C21.9438 98.904 21.6873 97.8201 21.3701 96.5532C18.0963 97.0952 15.0589 98.1791 11.9674 99.0395C9.31468 99.7712 8.04569 99.446 7.68119 98.003C7.33694 96.6413 8.35618 95.6454 10.9279 94.8933C14.0464 93.9855 17.5024 92.9219 20.7086 92.0005C20.4926 90.4829 20.1146 89.0873 19.9863 88.0305C19.0143 88.1863 18.1976 88.4437 17.3471 88.6808C12.8111 89.9477 8.26168 91.1943 3.72572 92.4612C2.32849 92.8474 0.802999 93.6468 0.141505 91.4992C-0.330991 89.9748 0.472252 88.9857 2.78748 88.315C7.63394 86.9058 12.5074 85.5712 17.3674 84.1959C17.7926 84.074 18.7916 83.7556 19.3316 83.5862C18.9806 82.2177 18.8321 81.215 18.6431 79.772C16.1726 80.1988 13.6279 81.0388 11.2519 81.5605C10.3744 81.7502 9.52392 82.0483 8.63968 82.2041C7.58669 82.387 6.5337 82.299 6.17595 81.0524C5.81821 79.8058 6.2907 78.7354 7.47869 78.2747C9.04468 77.6718 10.6917 77.2788 12.3049 76.8046C13.2769 76.5201 14.2624 76.2897 15.2276 75.9984C17.7859 75.2193 17.8736 75.0635 17.4079 72.4281C15.0589 59.1291 12.7031 45.8234 10.3609 32.5244C9.44292 27.3146 10.9549 23.8933 16.8004 22.2944C41.3566 15.5738 65.8522 8.54833 90.3882 1.68545C91.9475 1.25186 93.5067 0.432104 95.2887 1.12991C97.7929 2.11226 98.8662 4.06341 99.2914 6.54299C101.37 18.636 103.436 30.7291 105.542 42.8221C107.661 55.0236 109.828 67.2182 111.968 79.4129C112.042 79.8533 112.076 80.2936 112.177 81.1879C99.1767 85.246 85.9873 88.5995 73.1219 92.3325C72.4604 91.8108 72.3659 91.384 72.2781 90.9369C69.8954 79.5145 57.543 75.3074 47.8973 81.8044C42.3354 85.5509 39.2979 90.8759 39.3182 97.7726C39.3182 98.9921 39.6219 100.239 39.1629 101.628L39.1562 101.614Z" fill="#B9DF01"/>
<path d="M167.952 53.9733C169.828 54.5763 171.779 53.6549 172.663 55.4434C173.615 57.3607 174.088 59.488 173.98 61.6356C173.912 62.9364 173.102 64.0542 171.86 64.4743C167.527 65.9376 163.119 67.1707 158.954 68.1191C158.198 67.5771 158.104 67.1436 158.003 66.7032C155.235 54.705 142.498 51.6631 133.507 57.8621C127.83 61.7711 124.948 67.2519 125.076 74.2368C125.097 75.2462 125.076 76.2489 125.076 77.5022C121.931 78.8979 118.468 79.5347 114.648 80.5983C110.787 58.4447 106.986 36.6704 103.166 14.7742C107.02 13.216 110.746 12.4437 114.384 11.4139C122.376 9.15792 130.362 6.9019 138.36 4.67976C142.14 3.62967 143.942 4.28682 146.048 7.61326C151.779 16.6509 157.449 25.7223 163.166 34.7735C164.955 37.5986 165.704 40.7556 166.231 43.994C166.777 47.3137 167.365 50.6198 167.945 53.9801L167.952 53.9733ZM118.792 49.5494C119.089 49.4816 119.528 49.4003 119.953 49.2784C130.854 46.2094 141.769 43.1607 152.657 40.0511C154.965 39.3939 155.417 38.3777 154.148 36.3046C149.491 28.7304 144.719 21.2239 139.973 13.697C139.028 12.193 137.813 11.6917 135.964 12.2269C128.964 14.2661 121.911 16.1157 114.904 18.121C111.745 19.022 111.171 19.9366 111.576 23.3376C111.894 26.0137 112.447 28.6626 112.913 31.3251C113.804 36.4198 114.735 41.5144 115.586 46.6159C115.89 48.418 116.706 49.5155 118.792 49.5358V49.5494ZM123.429 53.7768C123.045 52.7674 117.867 54.2917 118.279 55.8499C118.569 57.1507 124.037 55.2876 123.429 53.7768Z" fill="#B9DF01"/>
<path d="M69.7403 94.399C69.7133 100.456 65.7375 106.438 60.4321 108.477C52.5819 111.505 47.7422 109.215 44.455 104.859C40.7088 99.8866 41.0868 93.0101 45.319 87.6377C48.6534 83.3967 53.0544 81.0729 58.4949 81.5268C65.2178 82.0891 69.7808 87.4751 69.747 94.3922L69.7403 94.399ZM55.3156 102.427C59.1968 102.386 62.5651 98.9313 62.5651 94.9951C62.5651 91.4655 59.8516 88.8639 56.2876 88.9656C52.3794 89.0807 49.2474 92.5156 49.3284 96.5872C49.4027 100.164 51.7584 102.468 55.3156 102.427Z" fill="white"/>
<path d="M155.471 70.2599C155.768 78.1119 148.721 86.6888 138.076 85.5913C132.649 85.0358 128.248 80.1511 127.695 74.3722C126.885 65.9172 133.993 57.8416 142.471 57.5707C150.071 57.3335 155.484 62.6179 155.464 70.2599H155.471ZM135.079 72.3601C135.079 75.8356 137.59 78.4913 140.898 78.5252C144.718 78.5658 148.451 74.6771 148.336 70.7748C148.242 67.4551 145.467 64.752 142.214 64.7994C138.367 64.8536 135.066 68.3426 135.073 72.3601H135.079Z" fill="white"/>
</svg>
